<svg xmlns="http://www.w3.org/2000/svg" viewBox="0 0 750.66 436.78"><defs><style>.cls-1{fill:none;stroke:#000;}.cls-1,.cls-3,.cls-4{stroke-miterlimit:10;}.cls-2{font-size:21.31px;}.cls-2,.cls-5,.cls-6{fill:#231f20;font-family:Geneva, Geneva;}.cls-3{fill:#2e3192;stroke:#2e3192;}.cls-4{fill:#9e1f63;stroke:#9e1f63;}.cls-5{font-size:20px;}.cls-6{font-size:12px;}</style></defs><title>avg-rents-graphic_4</title><g id="Layer_2" data-name="Layer 2"><g id="Layer_1-2" data-name="Layer 1"><line class="cls-1" x1="84.6" y1="407.89" x2="539.31" y2="407.89"/><line class="cls-1" x1="84.6" y1="407.89" x2="84.6" y2="399.5"/><line class="cls-1" x1="122.49" y1="407.89" x2="122.49" y2="399.5"/><line class="cls-1" x1="160.38" y1="407.89" x2="160.38" y2="399.5"/><line class="cls-1" x1="198.28" y1="407.89" x2="198.28" y2="399.5"/><line class="cls-1" x1="236.17" y1="407.89" x2="236.17" y2="399.5"/><line class="cls-1" x1="274.06" y1="407.89" x2="274.06" y2="399.5"/><line class="cls-1" x1="311.96" y1="407.89" x2="311.96" y2="399.5"/><line class="cls-1" x1="349.85" y1="407.89" x2="349.85" y2="399.5"/><line class="cls-1" x1="387.74" y1="407.89" x2="387.74" y2="399.5"/><line class="cls-1" x1="425.63" y1="407.89" x2="425.63" y2="399.5"/><line class="cls-1" x1="463.53" y1="407.89" x2="463.53" y2="399.5"/><line class="cls-1" x1="501.42" y1="407.89" x2="501.42" y2="399.5"/><line class="cls-1" x1="539.31" y1="407.89" x2="539.31" y2="399.5"/><text class="cls-2" transform="translate(20.67 415.88)">$500</text><text class="cls-2" transform="translate(0 332)">$1,000</text><text class="cls-2" transform="translate(0 248.12)">$1,500</text><text class="cls-2" transform="translate(0 164.25)">$2,000</text><text class="cls-2" transform="translate(0 80.37)">$2,500</text><line class="cls-1" x1="84.6" y1="407.89" x2="84.6" y2="72.37"/><line class="cls-1" x1="84.6" y1="407.89" x2="95.97" y2="407.89"/><line class="cls-1" x1="84.6" y1="324.01" x2="95.97" y2="324.01"/><line class="cls-1" x1="84.6" y1="240.13" x2="95.97" y2="240.13"/><line class="cls-1" x1="84.6" y1="156.25" x2="95.97" y2="156.25"/><line class="cls-1" x1="84.6" y1="72.37" x2="95.97" y2="72.37"/><line class="cls-3" x1="527.18" y1="48.33" x2="584.02" y2="48.33"/><line class="cls-3" x1="141.44" y1="246.84" x2="103.55" y2="265.13"/><line class="cls-3" x1="179.33" y1="236.78" x2="141.44" y2="246.84"/><line class="cls-3" x1="217.22" y1="210.1" x2="179.33" y2="236.78"/><line class="cls-3" x1="255.12" y1="203.9" x2="217.22" y2="210.1"/><line class="cls-3" x1="293.01" y1="192.99" x2="255.12" y2="203.9"/><line class="cls-3" x1="330.9" y1="186.11" x2="293.01" y2="192.99"/><line class="cls-3" x1="368.79" y1="174.03" x2="330.9" y2="186.11"/><line class="cls-3" x1="406.69" y1="167.32" x2="368.79" y2="174.03"/><line class="cls-3" x1="444.58" y1="156.25" x2="406.69" y2="167.32"/><line class="cls-3" x1="482.47" y1="144.84" x2="444.58" y2="156.25"/><line class="cls-3" x1="520.37" y1="139.48" x2="482.47" y2="144.84"/><line class="cls-4" x1="524.75" y1="107.14" x2="581.59" y2="107.14"/><line class="cls-4" x1="141.44" y1="335.75" x2="103.55" y2="340.62"/><line class="cls-4" x1="179.33" y1="336.26" x2="141.44" y2="335.75"/><line class="cls-4" x1="217.22" y1="327.03" x2="179.33" y2="336.26"/><line class="cls-4" x1="255.12" y1="330.05" x2="217.22" y2="327.03"/><line class="cls-4" x1="293.01" y1="330.22" x2="255.12" y2="330.05"/><line class="cls-4" x1="330.9" y1="332.57" x2="293.01" y2="330.22"/><line class="cls-4" x1="368.79" y1="332.06" x2="330.9" y2="332.57"/><line class="cls-4" x1="406.69" y1="329.55" x2="368.79" y2="332.06"/><line class="cls-4" x1="444.58" y1="324.01" x2="406.69" y2="329.55"/><line class="cls-4" x1="482.47" y1="318.31" x2="444.58" y2="324.01"/><line class="cls-4" x1="520.37" y1="315.62" x2="482.47" y2="318.31"/><rect class="cls-3" x="552.6" y="45.33" width="6" height="6"/><rect class="cls-3" x="100.55" y="262.13" width="6" height="6"/><rect class="cls-3" x="138.44" y="243.84" width="6" height="6"/><rect class="cls-3" x="176.33" y="233.78" width="6" height="6"/><rect class="cls-3" x="214.22" y="207.1" width="6" height="6"/><rect class="cls-3" x="252.12" y="200.9" width="6" height="6"/><rect class="cls-3" x="290.01" y="189.99" width="6" height="6"/><rect class="cls-3" x="327.9" y="183.11" width="6" height="6"/><rect class="cls-3" x="365.79" y="171.03" width="6" height="6"/><rect class="cls-3" x="403.69" y="164.32" width="6" height="6"/><rect class="cls-3" x="441.58" y="153.25" width="6" height="6"/><rect class="cls-3" x="479.47" y="141.84" width="6" height="6"/><rect class="cls-3" x="517.37" y="136.48" width="6" height="6"/><rect class="cls-4" x="550.17" y="104.14" width="6" height="6"/><rect class="cls-4" x="100.55" y="337.62" width="6" height="6"/><rect class="cls-4" x="138.44" y="332.75" width="6" height="6"/><rect class="cls-4" x="176.33" y="333.26" width="6" height="6"/><rect class="cls-4" x="214.22" y="324.03" width="6" height="6"/><rect class="cls-4" x="252.12" y="327.05" width="6" height="6"/><rect class="cls-4" x="290.01" y="327.22" width="6" height="6"/><rect class="cls-4" x="327.9" y="329.57" width="6" height="6"/><rect class="cls-4" x="365.79" y="329.06" width="6" height="6"/><rect class="cls-4" x="403.69" y="326.55" width="6" height="6"/><rect class="cls-4" x="441.58" y="321.01" width="6" height="6"/><rect class="cls-4" x="479.47" y="315.31" width="6" height="6"/><rect class="cls-4" x="517.37" y="312.62" width="6" height="6"/><text class="cls-5" transform="translate(590.87 112.12)">Average Rent<tspan x="0" y="24">Nationally </tspan></text><text class="cls-5" transform="translate(590.27 54.44)">Average Rent in <tspan x="0" y="24">Arbolito&apos;s State</tspan></text><text class="cls-6" transform="translate(520.37 429.12)">2016</text><text class="cls-6" transform="translate(482.47 429.12)">2015</text><text class="cls-6" transform="translate(444.58 429.12)">2014</text><text class="cls-6" transform="translate(406.69 429.12)">2013</text><text class="cls-6" transform="translate(368.79 429.12)">2012</text><text class="cls-6" transform="translate(330.9 429.12)">2011</text><text class="cls-6" transform="translate(293.01 429.12)">2010</text><text class="cls-6" transform="translate(255.12 429.12)">2009</text><text class="cls-6" transform="translate(217.22 429.12)">2008</text><text class="cls-6" transform="translate(179.33 429.12)">2007</text><text class="cls-6" transform="translate(141.44 429.12)">2006</text><text class="cls-6" transform="translate(103.55 429.12)">2005</text><text class="cls-6" transform="translate(378.15 218.41)">Arbolito’s average prices are far above the<tspan x="0" y="14.4">nation’s average rent prices. In fact, by most </tspan><tspan x="0" y="28.8">recent measures, Arbolito’s rent prices are</tspan><tspan x="0" y="43.2">double the national average! </tspan><tspan x="0" y="57.6"> </tspan></text><text class="cls-5" transform="translate(222.1 17.58)">National versus Statewide Average Rents</text></g></g></svg>