<svg xmlns="http://www.w3.org/2000/svg" viewBox="0 0 45.66 49.03"><defs><style>.cls-1{fill:#002d4f;stroke:#414042;}.cls-1,.cls-2{stroke-miterlimit:10;}.cls-2{fill:#bcbec0;stroke:#bcbec0;}</style></defs><title>big_smile_blue4</title><g id="Layer_2" data-name="Layer 2"><g id="Layer_1-2" data-name="Layer 1"><ellipse class="cls-1" cx="22.83" cy="24.51" rx="22.33" ry="24.01"/><ellipse class="cls-2" cx="7.96" cy="21.98" rx="1.73" ry="2.54"/><ellipse class="cls-2" cx="37.5" cy="21.98" rx="1.73" ry="2.54"/><path class="cls-2" d="M13.46,28.62a19.73,19.73,0,0,0,.43,3.54,16.22,16.22,0,0,0,1.19,3.63,12.3,12.3,0,0,0,1.74,2.84,8.9,8.9,0,0,0,2.51,2.22,6.78,6.78,0,0,0,2.52.93,6.92,6.92,0,0,0,2.94-.22,7.46,7.46,0,0,0,2.05-1,9.51,9.51,0,0,0,2.31-2.27,12,12,0,0,0,1.43-2.4,15.48,15.48,0,0,0,1-2.79,16.82,16.82,0,0,0,.53-2.92c.06-.63.08-1.17.08-1.58"/></g></g></svg>