<svg xmlns="http://www.w3.org/2000/svg" viewBox="0 0 781.9 76.98"><defs><style>.cls-1,.cls-10{fill:#235380;}.cls-12,.cls-2{fill:#ced8e8;}.cls-3,.cls-7{fill:#7b9ac2;}.cls-13,.cls-4,.cls-5{fill:#002d4f;}.cls-5{stroke:#231f20;stroke-width:2px;}.cls-10,.cls-11,.cls-12,.cls-13,.cls-5,.cls-7,.cls-8,.cls-9{stroke-miterlimit:10;}.cls-6{font-size:12px;fill:#231f20;font-family:Geneva, Geneva;}.cls-10,.cls-12,.cls-13,.cls-7,.cls-8,.cls-9{stroke:#414042;}.cls-8{fill:#414042;}.cls-9{fill:none;}.cls-11{fill:#bcbec0;stroke:#bcbec0;}</style></defs><title>MedianFamilyIncome_1</title><g id="Layer_2" data-name="Layer 2"><g id="Layer_1-2" data-name="Layer 1"><rect class="cls-1" x="273.03" y="9.57" width="38.99" height="32.58"/><rect class="cls-2" y="9.57" width="38.99" height="32.58"/><rect class="cls-2" x="39.01" y="9.57" width="38.99" height="32.58"/><rect class="cls-2" x="78.03" y="9.57" width="38.99" height="32.58"/><rect class="cls-3" x="117.07" y="9.57" width="38.99" height="32.58"/><rect class="cls-3" x="156.06" y="9.57" width="38.99" height="32.58"/><rect class="cls-1" x="195.05" y="9.57" width="38.99" height="32.58"/><rect class="cls-1" x="234.04" y="9.57" width="38.99" height="32.58"/><rect class="cls-4" x="312.02" y="9.57" width="38.99" height="32.58"/><rect class="cls-4" x="351.01" y="9.57" width="38.99" height="32.58"/><rect class="cls-4" x="391.99" y="9.57" width="38.99" height="32.58"/><rect class="cls-4" x="430.98" y="9.57" width="38.99" height="32.58"/><rect class="cls-4" x="469.97" y="9.57" width="38.99" height="32.58"/><rect class="cls-4" x="508.97" y="9.57" width="38.99" height="32.58"/><rect class="cls-4" x="547.96" y="9.57" width="38.99" height="32.58"/><rect class="cls-4" x="586.95" y="9.57" width="38.99" height="32.58"/><rect class="cls-4" x="625.94" y="9.57" width="38.99" height="32.58"/><rect class="cls-4" x="664.93" y="9.57" width="38.99" height="32.58"/><rect class="cls-4" x="703.92" y="9.57" width="38.99" height="32.58"/><rect class="cls-4" x="742.91" y="9.57" width="38.99" height="32.58"/><line class="cls-5" x1="390.99" x2="390.99" y2="53.03"/><line class="cls-5" x1="781.9" y1="25.86" y2="25.86"/><text class="cls-6" transform="translate(327.99 64.89)">Median Family Income</text><rect class="cls-7" x="139.98" y="44.89" width="32.15" height="26.86"/><ellipse class="cls-8" cx="145.05" cy="53.55" rx="1.25" ry="1.83"/><ellipse class="cls-8" cx="166.36" cy="53.55" rx="1.25" ry="1.83"/><path class="cls-8" d="M149,58.34a14.3,14.3,0,0,0,.31,2.56,12.21,12.21,0,0,0,.86,2.62,8.62,8.62,0,0,0,1.26,2,6.36,6.36,0,0,0,1.8,1.6,5,5,0,0,0,1.82.67,4.92,4.92,0,0,0,2.12-.15,5.16,5.16,0,0,0,1.48-.73,7,7,0,0,0,1.67-1.63,8.9,8.9,0,0,0,1-1.74,11,11,0,0,0,.73-2,12.17,12.17,0,0,0,.38-2.1,10.47,10.47,0,0,0,.06-1.14"/><path class="cls-9" d="M150.76,71.76a4,4,0,0,1-.86,3.59,3.88,3.88,0,0,1-2.73,1.13"/><path class="cls-9" d="M161.53,71.76a4,4,0,0,0,.86,3.59,3.86,3.86,0,0,0,2.73,1.13"/><rect class="cls-10" x="237.46" y="44.89" width="32.15" height="26.86"/><ellipse class="cls-11" cx="242.53" cy="53.55" rx="1.25" ry="1.83"/><ellipse class="cls-11" cx="263.84" cy="53.55" rx="1.25" ry="1.83"/><path class="cls-11" d="M246.5,58.34a14.3,14.3,0,0,0,.31,2.56,11.66,11.66,0,0,0,.86,2.62,8.86,8.86,0,0,0,1.25,2,6.43,6.43,0,0,0,1.81,1.6,5,5,0,0,0,1.82.67,4.92,4.92,0,0,0,2.12-.15,5.16,5.16,0,0,0,1.48-.73,7.18,7.18,0,0,0,1.67-1.63,8.9,8.9,0,0,0,1-1.74,11,11,0,0,0,.73-2,13.3,13.3,0,0,0,.38-2.1c0-.46.06-.85.06-1.14"/><path class="cls-9" d="M248.24,71.76a4,4,0,0,1-.87,3.59,3.85,3.85,0,0,1-2.72,1.13"/><path class="cls-9" d="M259,71.76a4,4,0,0,0,.86,3.59,3.85,3.85,0,0,0,2.72,1.13"/><rect class="cls-12" x="35.84" y="44.89" width="32.15" height="26.86"/><path class="cls-9" d="M46.62,71.76a4,4,0,0,1-.86,3.59A3.85,3.85,0,0,1,43,76.48"/><path class="cls-9" d="M57.39,71.76a4,4,0,0,0,.87,3.59A3.85,3.85,0,0,0,61,76.48"/><ellipse class="cls-8" cx="40.91" cy="53.55" rx="1.25" ry="1.83"/><ellipse class="cls-8" cx="62.23" cy="53.55" rx="1.25" ry="1.83"/><path class="cls-8" d="M44.89,58.34a12.67,12.67,0,0,0,.31,2.56,11.51,11.51,0,0,0,.85,2.62,9,9,0,0,0,1.26,2,6.29,6.29,0,0,0,1.81,1.6,4.85,4.85,0,0,0,1.82.67A4.86,4.86,0,0,0,54.53,67a6.8,6.8,0,0,0,1.67-1.63,9.05,9.05,0,0,0,1-1.74,11.54,11.54,0,0,0,.72-2,12.57,12.57,0,0,0,.39-2.1c0-.46,0-.85,0-1.14"/><rect class="cls-13" x="563.84" y="44.89" width="32.15" height="26.86"/><path class="cls-9" d="M574.61,71.76a4,4,0,0,1-.86,3.59A3.85,3.85,0,0,1,571,76.48"/><path class="cls-9" d="M585.39,71.76a4,4,0,0,0,.86,3.59A3.85,3.85,0,0,0,589,76.48"/><ellipse class="cls-11" cx="568.91" cy="53.55" rx="1.25" ry="1.83"/><ellipse class="cls-11" cx="590.22" cy="53.55" rx="1.25" ry="1.83"/><path class="cls-11" d="M572.88,58.34a14.3,14.3,0,0,0,.31,2.56,11.66,11.66,0,0,0,.86,2.62,8.86,8.86,0,0,0,1.25,2,6.29,6.29,0,0,0,1.81,1.6,5,5,0,0,0,1.82.67,4.92,4.92,0,0,0,2.12-.15,5.16,5.16,0,0,0,1.48-.73,7.18,7.18,0,0,0,1.67-1.63,8.9,8.9,0,0,0,1-1.74,11,11,0,0,0,.73-2,13.3,13.3,0,0,0,.38-2.1c0-.46,0-.85.06-1.14"/></g></g></svg>