<svg xmlns="http://www.w3.org/2000/svg" viewBox="0 0 790.15 413.22"><defs><style>.cls-1{fill:none;stroke:#000;}.cls-1,.cls-3,.cls-4,.cls-5,.cls-6{stroke-miterlimit:10;}.cls-2{font-size:21.31px;}.cls-2,.cls-7,.cls-8{fill:#231f20;font-family:Geneva, Geneva;}.cls-3,.cls-5{fill:#2e3192;stroke:#2e3192;}.cls-3,.cls-4{stroke-linecap:round;stroke-width:2px;}.cls-4,.cls-6{fill:#9e1f63;stroke:#9e1f63;}.cls-5,.cls-6{stroke-width:0.5px;}.cls-7{font-size:20px;}.cls-8{font-size:12px;}</style></defs><title>mfi-v-minwage-graphic_1</title><g id="Layer_2" data-name="Layer 2"><g id="Layer_1-2" data-name="Layer 1"><line class="cls-1" x1="113.01" y1="384.33" x2="567.72" y2="384.33"/><line class="cls-1" x1="113.01" y1="384.33" x2="113.01" y2="375.94"/><line class="cls-1" x1="226.69" y1="384.33" x2="226.69" y2="375.94"/><line class="cls-1" x1="340.37" y1="384.33" x2="340.37" y2="375.94"/><line class="cls-1" x1="454.05" y1="384.33" x2="454.05" y2="375.94"/><line class="cls-1" x1="567.72" y1="384.33" x2="567.72" y2="375.94"/><text class="cls-2" transform="translate(77.49 392.32)">$0</text><text class="cls-2" transform="translate(14.21 325.22)">$20,000</text><text class="cls-2" transform="translate(14.21 258.12)">$40,000</text><text class="cls-2" transform="translate(14.21 191.01)">$60,000</text><text class="cls-2" transform="translate(14.21 123.91)">$80,000</text><text class="cls-2" transform="translate(0 56.81)">$100,000</text><line class="cls-1" x1="113.01" y1="384.33" x2="113.01" y2="48.81"/><line class="cls-1" x1="113.01" y1="384.33" x2="124.38" y2="384.33"/><line class="cls-1" x1="113.01" y1="317.23" x2="124.38" y2="317.23"/><line class="cls-1" x1="113.01" y1="250.12" x2="124.38" y2="250.12"/><line class="cls-1" x1="113.01" y1="183.02" x2="124.38" y2="183.02"/><line class="cls-1" x1="113.01" y1="115.92" x2="124.38" y2="115.92"/><line class="cls-1" x1="113.01" y1="48.81" x2="124.38" y2="48.81"/><line class="cls-3" x1="581.56" y1="83.16" x2="638.4" y2="83.16"/><line class="cls-3" x1="283.53" y1="304.07" x2="169.85" y2="332.2"/><line class="cls-3" x1="397.21" y1="305.33" x2="283.53" y2="304.07"/><line class="cls-3" x1="510.89" y1="286.63" x2="397.21" y2="305.33"/><line class="cls-4" x1="581.56" y1="50.27" x2="638.4" y2="50.27"/><line class="cls-4" x1="283.53" y1="161.94" x2="169.85" y2="175.85"/><line class="cls-4" x1="397.21" y1="124.3" x2="283.53" y2="161.94"/><line class="cls-4" x1="510.89" y1="59.96" x2="397.21" y2="124.3"/><rect class="cls-5" x="606.98" y="80.16" width="6" height="6"/><rect class="cls-5" x="166.85" y="329.2" width="6" height="6"/><rect class="cls-5" x="280.53" y="301.07" width="6" height="6"/><rect class="cls-5" x="394.21" y="302.33" width="6" height="6"/><rect class="cls-5" x="507.89" y="283.63" width="6" height="6"/><rect class="cls-6" x="606.98" y="47.27" width="6" height="6"/><rect class="cls-6" x="166.85" y="172.85" width="6" height="6"/><rect class="cls-6" x="280.53" y="158.94" width="6" height="6"/><rect class="cls-6" x="394.21" y="121.3" width="6" height="6"/><rect class="cls-6" x="507.89" y="56.96" width="6" height="6"/><text class="cls-7" transform="translate(645.51 91.15)">Minimum Wage</text><text class="cls-7" transform="translate(645.51 58.27)">Median Income</text><text class="cls-8" transform="translate(510.89 405.56)">2016</text><text class="cls-8" transform="translate(397.21 405.56)">2010</text><text class="cls-8" transform="translate(283.53 405.56)">2004</text><text class="cls-8" transform="translate(169.85 405.56)">1990</text><text class="cls-8" transform="translate(384.53 177.24)">Notice the increasingly wide gap between <tspan x="0" y="14.4">the median income and minimum wage.</tspan><tspan x="0" y="28.8">The most recently recorded minimum wage</tspan><tspan x="0" y="43.2">was $29,120, while the most recently recorded</tspan><tspan x="0" y="57.6">median income was $96,677. </tspan><tspan x="0" y="72"> </tspan></text><text></text><text class="cls-7" transform="translate(227.52 17.58)">Median Family Income versus Minimum Wage</text></g></g></svg>