<svg xmlns="http://www.w3.org/2000/svg" viewBox="0 0 45.57 44.78"><defs><style>.cls-1{fill:#ced8e8;}.cls-1,.cls-2,.cls-3{stroke:#414042;stroke-miterlimit:10;}.cls-2{fill:none;}.cls-3{fill:#414042;}</style></defs><title>square_big_smile_blue1</title><g id="Layer_2" data-name="Layer 2"><g id="Layer_1-2" data-name="Layer 1"><rect class="cls-1" x="0.5" y="0.5" width="44.57" height="37.24"/><path class="cls-2" d="M15.44,37.74a5.57,5.57,0,0,1-1.2,5,5.3,5.3,0,0,1-3.77,1.56"/><path class="cls-2" d="M30.37,37.74a5.57,5.57,0,0,0,1.2,5,5.3,5.3,0,0,0,3.77,1.56"/><ellipse class="cls-3" cx="7.53" cy="12.5" rx="1.73" ry="2.54"/><ellipse class="cls-3" cx="37.07" cy="12.5" rx="1.73" ry="2.54"/><path class="cls-3" d="M13,19.14a19.73,19.73,0,0,0,.43,3.54,16.06,16.06,0,0,0,1.19,3.63,12.3,12.3,0,0,0,1.74,2.84,8.9,8.9,0,0,0,2.51,2.22,6.78,6.78,0,0,0,2.52.93,6.92,6.92,0,0,0,2.94-.22,7.46,7.46,0,0,0,2.05-1,9.34,9.34,0,0,0,2.31-2.27,12,12,0,0,0,1.43-2.4,15.48,15.48,0,0,0,1-2.79,16.93,16.93,0,0,0,.53-2.91c.06-.64.08-1.18.08-1.59"/></g></g></svg>