<svg xmlns="http://www.w3.org/2000/svg" viewBox="0 0 45.57 44.78"><defs><style>.cls-1{fill:#7b9ac2;}.cls-1,.cls-2,.cls-3{stroke:#414042;stroke-miterlimit:10;}.cls-2{fill:#414042;}.cls-3{fill:none;}</style></defs><title>square_thin_smile_blue2</title><g id="Layer_2" data-name="Layer 2"><g id="Layer_1-2" data-name="Layer 1"><rect class="cls-1" x="0.5" y="0.5" width="44.57" height="37.24"/><ellipse class="cls-2" cx="7.53" cy="12.5" rx="1.73" ry="2.54"/><ellipse class="cls-2" cx="37.07" cy="12.5" rx="1.73" ry="2.54"/><path class="cls-3" d="M15.44,37.74a5.57,5.57,0,0,1-1.2,5,5.3,5.3,0,0,1-3.77,1.56"/><path class="cls-3" d="M30.37,37.74a5.57,5.57,0,0,0,1.2,5,5.3,5.3,0,0,0,3.77,1.56"/><path class="cls-3" d="M12.27,19.14a18.86,18.86,0,0,0,.43,3.54,15.92,15.92,0,0,0,1.18,3.63,12.06,12.06,0,0,0,1.75,2.84,9,9,0,0,0,2.5,2.22,6.64,6.64,0,0,0,5.46.71,7.32,7.32,0,0,0,2.05-1A9.6,9.6,0,0,0,28,28.81a13,13,0,0,0,1.43-2.4,16.32,16.32,0,0,0,1-2.79,18,18,0,0,0,.53-2.91c.06-.64.07-1.18.08-1.59"/></g></g></svg>