<svg xmlns="http://www.w3.org/2000/svg" viewBox="0 0 45.57 44.78"><defs><style>.cls-1{fill:#002d4f;}.cls-1,.cls-2{stroke:#414042;}.cls-1,.cls-2,.cls-3,.cls-4{stroke-miterlimit:10;}.cls-2,.cls-4{fill:none;}.cls-3{fill:#bcbec0;}.cls-3,.cls-4{stroke:#bcbec0;}</style></defs><title>square_thin_smile_blue4</title><g id="Layer_2" data-name="Layer 2"><g id="Layer_1-2" data-name="Layer 1"><rect class="cls-1" x="0.5" y="0.5" width="44.57" height="37.24"/><path class="cls-2" d="M15.44,37.74a5.57,5.57,0,0,1-1.2,5,5.3,5.3,0,0,1-3.77,1.56"/><path class="cls-2" d="M30.37,37.74a5.57,5.57,0,0,0,1.2,5,5.3,5.3,0,0,0,3.77,1.56"/><ellipse class="cls-3" cx="7.53" cy="12.5" rx="1.73" ry="2.54"/><ellipse class="cls-3" cx="37.07" cy="12.5" rx="1.73" ry="2.54"/><path class="cls-4" d="M13.56,19.14A18.86,18.86,0,0,0,14,22.68a15.56,15.56,0,0,0,1.19,3.63,11.63,11.63,0,0,0,1.74,2.84,9,9,0,0,0,2.5,2.22A6.84,6.84,0,0,0,22,32.3a6.92,6.92,0,0,0,2.94-.22,7.37,7.37,0,0,0,2-1,9.41,9.41,0,0,0,2.32-2.27,13,13,0,0,0,1.43-2.4,16.32,16.32,0,0,0,1-2.79,18,18,0,0,0,.53-2.91c.06-.64.07-1.18.08-1.59"/></g></g></svg>