<svg xmlns="http://www.w3.org/2000/svg" viewBox="0 0 45.57 44.78"><defs><style>.cls-1{fill:#235380;}.cls-1,.cls-3{stroke:#414042;}.cls-1,.cls-2,.cls-3,.cls-4{stroke-miterlimit:10;}.cls-2{fill:#bcbec0;}.cls-2,.cls-4{stroke:#bcbec0;}.cls-3,.cls-4{fill:none;}</style></defs><title>square_thin_smile_blue3</title><g id="Layer_2" data-name="Layer 2"><g id="Layer_1-2" data-name="Layer 1"><rect class="cls-1" x="0.5" y="0.5" width="44.57" height="37.24"/><ellipse class="cls-2" cx="7.53" cy="12.5" rx="1.73" ry="2.54"/><ellipse class="cls-2" cx="37.07" cy="12.5" rx="1.73" ry="2.54"/><path class="cls-3" d="M15.44,37.74a5.57,5.57,0,0,1-1.2,5,5.3,5.3,0,0,1-3.77,1.56"/><path class="cls-3" d="M30.37,37.74a5.57,5.57,0,0,0,1.2,5,5.3,5.3,0,0,0,3.77,1.56"/><path class="cls-4" d="M13.41,19.14a20.69,20.69,0,0,0,.43,3.54A16.59,16.59,0,0,0,15,26.31a12.3,12.3,0,0,0,1.74,2.84,8.9,8.9,0,0,0,2.51,2.22,6.78,6.78,0,0,0,2.52.93,6.91,6.91,0,0,0,2.94-.22,7.46,7.46,0,0,0,2.05-1,9.34,9.34,0,0,0,2.31-2.27,12.64,12.64,0,0,0,1.44-2.4,15.25,15.25,0,0,0,1-2.79,16.93,16.93,0,0,0,.53-2.91c.06-.64.08-1.18.08-1.59"/></g></g></svg>