<svg xmlns="http://www.w3.org/2000/svg" viewBox="0 0 45.66 49.03"><defs><style>.cls-1{fill:#002d4f;stroke:#414042;}.cls-1,.cls-2,.cls-3{stroke-miterlimit:10;}.cls-2{fill:#bcbec0;}.cls-2,.cls-3{stroke:#bcbec0;}.cls-3{fill:none;}</style></defs><title>thin_smile_blue4</title><g id="Layer_2" data-name="Layer 2"><g id="Layer_1-2" data-name="Layer 1"><ellipse class="cls-1" cx="22.83" cy="24.51" rx="22.33" ry="24.01"/><ellipse class="cls-2" cx="7.96" cy="21.98" rx="1.73" ry="2.54"/><ellipse class="cls-2" cx="37.5" cy="21.98" rx="1.73" ry="2.54"/><path class="cls-3" d="M13.46,30.18a19.86,19.86,0,0,0,.43,3.55,16.38,16.38,0,0,0,1.19,3.63,12.73,12.73,0,0,0,1.74,2.84,8.9,8.9,0,0,0,2.51,2.22,7,7,0,0,0,2.52.92,6.69,6.69,0,0,0,2.94-.21,7.16,7.16,0,0,0,2.05-1,9.51,9.51,0,0,0,2.31-2.26,12.27,12.27,0,0,0,1.43-2.41,15.21,15.21,0,0,0,1-2.79,16.93,16.93,0,0,0,.53-2.91c.06-.63.08-1.17.08-1.59"/></g></g></svg>