<svg xmlns="http://www.w3.org/2000/svg" viewBox="0 0 45.66 49.03"><defs><style>.cls-1{fill:#235380;stroke:#414042;}.cls-1,.cls-2,.cls-3{stroke-miterlimit:10;}.cls-2{fill:#bcbec0;}.cls-2,.cls-3{stroke:#bcbec0;}.cls-3{fill:none;}</style></defs><title>thin_smile_blue3</title><g id="Layer_2" data-name="Layer 2"><g id="Layer_1-2" data-name="Layer 1"><ellipse class="cls-1" cx="22.83" cy="24.51" rx="22.33" ry="24.01"/><ellipse class="cls-2" cx="7.96" cy="21.98" rx="1.73" ry="2.54"/><ellipse class="cls-2" cx="37.5" cy="21.98" rx="1.73" ry="2.54"/><path class="cls-3" d="M13.46,29.59a19.85,19.85,0,0,0,.43,3.54,16.22,16.22,0,0,0,1.19,3.63,12.51,12.51,0,0,0,1.74,2.84,8.9,8.9,0,0,0,2.51,2.22,7.16,7.16,0,0,0,2.52.93,6.92,6.92,0,0,0,2.94-.22,7.16,7.16,0,0,0,2.05-1,9.33,9.33,0,0,0,2.31-2.26,11.72,11.72,0,0,0,1.43-2.41,15.18,15.18,0,0,0,1-2.78,16.82,16.82,0,0,0,.53-2.92c.06-.63.08-1.17.08-1.58"/></g></g></svg>