<svg xmlns="http://www.w3.org/2000/svg" viewBox="0 0 45.66 49.03"><defs><style>.cls-1{fill:#ced8e8;}.cls-1,.cls-2,.cls-3{stroke:#414042;stroke-miterlimit:10;}.cls-2{fill:#414042;}.cls-3{fill:none;}</style></defs><title>thin_smile_blue1</title><g id="Layer_2" data-name="Layer 2"><g id="Layer_1-2" data-name="Layer 1"><ellipse class="cls-1" cx="22.83" cy="24.51" rx="22.33" ry="24.01"/><ellipse class="cls-2" cx="7.96" cy="21.98" rx="1.73" ry="2.54"/><ellipse class="cls-2" cx="37.5" cy="21.98" rx="1.73" ry="2.54"/><path class="cls-3" d="M13.23,28.78a19,19,0,0,0,.43,3.54A16.22,16.22,0,0,0,14.85,36a12.3,12.3,0,0,0,1.74,2.84A8.9,8.9,0,0,0,19.1,41a6.78,6.78,0,0,0,2.52.93,6.92,6.92,0,0,0,2.94-.22,7.23,7.23,0,0,0,2-1,9.41,9.41,0,0,0,2.32-2.27,12,12,0,0,0,1.43-2.4,16.32,16.32,0,0,0,1-2.79,17.91,17.91,0,0,0,.53-2.92c.06-.63.08-1.17.08-1.58"/></g></g></svg>